<svg xmlns="http://www.w3.org/2000/svg" xml:space="preserve" width="48" height="48" viewBox="0 0 48 48">
  <linearGradient id="uwu__max_svg__a" x1="0" x2="48" y1="24" y2="24" gradientUnits="userSpaceOnUse">
    <stop offset="0" stop-color="#47bffd"/>
    <stop offset=".5" stop-color="#3a38ec"/>
    <stop offset="1" stop-color="#9f4bdb"/>
  </linearGradient>
  <circle cx="24" cy="24" r="24" fill="url(#uwu__max_svg__a)" fill-rule="evenodd" clip-rule="evenodd"/>
  <path fill="#fff" fill-rule="evenodd" d="M24.4 40.3c-3.2 0-4.7-.5-7.3-2.4-1.6 2.1-6.9 3.8-7.1.9 0-2.1-.5-3.9-1-5.9-.6-2.4-1.4-5.1-1.4-9 0-9.3 7.6-16.3 16.7-16.3S40.5 15 40.5 24s-7.2 16.2-16.1 16.3m.1-24.6c-4.4-.2-7.8 2.8-8.6 7.6-.6 4 .5 8.8 1.4 9 .5.1 1.6-.8 2.3-1.5 1.2.8 2.6 1.3 4 1.4 4.6.2 8.5-3.3 8.8-7.8.2-4.6-3.3-8.4-7.9-8.7" clip-rule="evenodd"/>
</svg>
